<svg width="196" height="60" viewBox="0 0 196 60" fill="none" xmlns="http://www.w3.org/2000/svg">
<g filter="url(#filter0_d)">
<path fill-rule="evenodd" clip-rule="evenodd" d="M170.505 11H150.765C149.047 11.0034 147.4 11.6891 146.185 12.9069C144.97 14.1248 144.286 15.7756 144.283 17.4979V34.5277C144.293 36.2477 144.982 37.8939 146.198 39.1066C147.415 40.3194 149.062 41 150.778 41H170.518C172.236 40.9966 173.883 40.3109 175.098 39.0931C176.313 37.8752 176.997 36.2244 177 34.5021V17.4979C176.997 15.7734 176.311 14.1206 175.093 12.9024C173.875 11.6842 172.225 11 170.505 11ZM151.306 17.4979H170.83V34.5277H151.306V17.4979ZM135.807 17.4979C135.804 15.7767 135.121 14.1268 133.907 12.9092C132.694 11.6915 131.048 11.0051 129.331 11H108.477C106.759 11.0034 105.112 11.6891 103.897 12.9069C102.682 14.1248 101.998 15.7756 101.995 17.4979V34.5277C102.005 36.2455 102.692 37.8898 103.906 39.1021C105.12 40.3145 106.763 40.9967 108.477 41H129.331C131.044 40.995 132.685 40.3121 133.898 39.0999C135.111 37.8877 135.797 36.2444 135.807 34.5277V23.2872H113.769C113.772 24.6168 114.3 25.8909 115.238 26.8311C116.176 27.7712 117.447 28.3009 118.774 28.3043H129.631V34.5277H108.617V17.4979H135.807ZM56.5419 17.4979H82.4776C82.4743 15.7767 81.7911 14.1268 80.5775 12.9092C79.364 11.6915 77.7187 11.0051 76.0016 11H55.9306C54.2124 11.0034 52.5656 11.6891 51.3506 12.9069C50.1357 14.1248 49.4516 15.7756 49.4483 17.4979V22.7702C49.4533 24.4914 50.1381 26.1406 51.3529 27.3571C52.5676 28.5735 54.2135 29.2583 55.9306 29.2617H76.0526V34.5277H49.4483C49.4583 36.2455 50.1453 37.8898 51.3596 39.1021C52.5738 40.3145 54.2168 40.9967 55.9306 41H76.6703C78.3884 40.9966 80.0353 40.3109 81.2502 39.0931C82.4652 37.8752 83.1492 36.2244 83.1526 34.5021V29.2617C83.1492 27.5394 82.4652 25.8886 81.2502 24.6707C80.0353 23.4529 78.3884 22.7672 76.6703 22.7638H56.5483V17.4979H56.5419ZM19.2016 17.4979H43.6919C43.6885 15.7756 43.0044 14.1248 41.7895 12.9069C40.5746 11.6891 38.9277 11.0034 37.2095 11H17.4696C15.7536 11.0067 14.11 11.6939 12.8978 12.9114C11.6856 14.1289 11.0034 15.7778 11 17.4979V34.5277C11.0101 36.2455 11.6971 37.8898 12.9113 39.1021C14.1255 40.3145 15.7685 40.9967 17.4823 41H37.2223C38.9338 40.9933 40.5736 40.3096 41.7851 39.0977C42.9966 37.8857 43.6818 36.2433 43.6919 34.5277H19.208V17.4979H19.2016Z" fill="url(#paint0_linear)"/>
<path d="M90.9259 18.6923C90.9259 18.2675 91.27 17.9231 91.6944 17.9231H94.7685C95.193 17.9231 95.537 18.2675 95.537 18.6923V21.7692C95.537 22.1941 95.193 22.5385 94.7685 22.5385H91.6944C91.27 22.5385 90.9259 22.1941 90.9259 21.7692V18.6923Z" fill="url(#paint1_linear)"/>
<path d="M90.9259 29.4615C90.9259 29.0367 91.27 28.6923 91.6944 28.6923H94.7685C95.193 28.6923 95.537 29.0367 95.537 29.4615V32.5385C95.537 32.9633 95.193 33.3077 94.7685 33.3077H91.6944C91.27 33.3077 90.9259 32.9633 90.9259 32.5385V29.4615Z" fill="url(#paint2_linear)"/>
</g>
<defs>
<filter id="filter0_d" x="0" y="0" width="196" height="60" filterUnits="userSpaceOnUse" color-interpolation-filters="sRGB">
<feFlood flood-opacity="0" result="BackgroundImageFix"/>
<feColorMatrix in="SourceAlpha" type="matrix" values="0 0 0 0 0 0 0 0 0 0 0 0 0 0 0 0 0 0 127 0"/>
<feOffset dx="4" dy="4"/>
<feGaussianBlur stdDeviation="7.5"/>
<feColorMatrix type="matrix" values="0 0 0 0 1 0 0 0 0 0.780392 0 0 0 0 0.152941 0 0 0 0.25 0"/>
<feBlend mode="normal" in2="BackgroundImageFix" result="effect1_dropShadow"/>
<feBlend mode="normal" in="SourceGraphic" in2="effect1_dropShadow" result="shape"/>
</filter>
<linearGradient id="paint0_linear" x1="11" y1="25.6154" x2="177" y2="25.6154" gradientUnits="userSpaceOnUse">
<stop stop-color="#FFD128"/>
<stop offset="1" stop-color="#FFAE25"/>
</linearGradient>
<linearGradient id="paint1_linear" x1="11" y1="25.6154" x2="177" y2="25.6154" gradientUnits="userSpaceOnUse">
<stop stop-color="#FFD128"/>
<stop offset="1" stop-color="#FFAE25"/>
</linearGradient>
<linearGradient id="paint2_linear" x1="11" y1="25.6154" x2="177" y2="25.6154" gradientUnits="userSpaceOnUse">
<stop stop-color="#FFD128"/>
<stop offset="1" stop-color="#FFAE25"/>
</linearGradient>
</defs>
</svg>
