<svg width="44" height="30" viewBox="0 0 44 30" fill="none" xmlns="http://www.w3.org/2000/svg">
<path d="M7.05043 21.1667C7.05033 21.1667 7.05014 21.1667 7.05004 21.1667H0.783338C0.350837 21.1666 9.79377e-05 21.5171 2.05084e-08 21.9496C2.05084e-08 21.9497 2.05084e-08 21.9499 2.05084e-08 21.95V28.2167C-9.78967e-05 28.6492 0.350446 28.9999 0.782946 29C0.783044 29 0.78324 29 0.783338 29H7.05004C7.48254 29.0001 7.83328 28.6496 7.83338 28.2171C7.83338 28.217 7.83338 28.2168 7.83338 28.2167V21.95C7.83348 21.5175 7.48293 21.1668 7.05043 21.1667ZM6.2667 27.4333H1.56668V22.7333H6.2667V27.4333Z" fill="white"/>
<path d="M19.0504 7.99997C19.0503 7.99997 19.0501 7.99997 19.05 7.99997H12.7833C12.3508 7.99987 12.0001 8.35041 12 8.78291C12 8.78301 12 8.7832 12 8.7833V15.05C11.9999 15.4825 12.3504 15.8332 12.7829 15.8333C12.783 15.8333 12.7832 15.8333 12.7833 15.8333H19.05C19.4825 15.8334 19.8333 15.4829 19.8334 15.0504C19.8334 15.0503 19.8334 15.0501 19.8334 15.05V8.7833C19.8335 8.3508 19.4829 8.00007 19.0504 7.99997ZM18.2667 14.2666H13.5667V9.56664H18.2667V14.2666Z" fill="white"/>
<path d="M19.0504 19C19.0503 19 19.0501 19 19.05 19H12.7833C12.3508 18.9999 12.0001 19.3504 12 19.7829C12 19.783 12 19.7832 12 19.7833V28.4C11.9999 28.8325 12.3504 29.1832 12.7829 29.1833C12.783 29.1833 12.7832 29.1833 12.7833 29.1833H19.05C19.4825 29.1834 19.8333 28.8329 19.8334 28.4004C19.8334 28.4003 19.8334 28.4001 19.8334 28.4V19.7833C19.8335 19.3508 19.4829 19.0001 19.0504 19ZM18.2667 27.6166H13.5667V20.5666H18.2667V27.6166Z" fill="white"/>
<path d="M31.0504 16C31.0503 16 31.0501 16 31.05 16H24.7833C24.3508 15.9999 24.0001 16.3504 24 16.7829C24 16.783 24 16.7832 24 16.7833V28.5333C23.9999 28.9658 24.3504 29.3165 24.7829 29.3166C24.783 29.3166 24.7832 29.3166 24.7833 29.3166H31.05C31.4825 29.3167 31.8333 28.9662 31.8334 28.5337C31.8334 28.5336 31.8334 28.5334 31.8334 28.5333V16.7833C31.8335 16.3508 31.4829 16.0001 31.0504 16ZM30.2667 27.75H25.5667V17.5666H30.2667V27.75Z" fill="white"/>
<path d="M31.0504 -3.04971e-05C31.0503 -3.04971e-05 31.0501 -3.04971e-05 31.05 -3.04971e-05H24.7833C24.3508 -0.000128414 24.0001 0.350413 24 0.782911C24 0.783009 24 0.783205 24 0.783303V12.5333C23.9999 12.9658 24.3504 13.3165 24.7829 13.3166C24.783 13.3166 24.7832 13.3166 24.7833 13.3166H31.05C31.4825 13.3167 31.8333 12.9662 31.8334 12.5337C31.8334 12.5336 31.8334 12.5334 31.8334 12.5333V0.783303C31.8335 0.350805 31.4829 6.74196e-05 31.0504 -3.04971e-05ZM30.2667 11.75H25.5667V1.56664H30.2667V11.75Z" fill="white"/>
<path d="M42.3006 8.63339C42.3005 8.63339 42.3003 8.63339 42.3002 8.63339H36.0335C35.601 8.63329 35.2502 8.98384 35.2501 9.41633C35.2501 9.41643 35.2501 9.41663 35.2501 9.41673V28.2167C35.25 28.6492 35.6006 29 36.0331 29.0001C36.0332 29.0001 36.0334 29.0001 36.0335 29.0001H42.3002C42.7327 29.0002 43.0834 28.6496 43.0835 28.2171C43.0835 28.217 43.0835 28.2168 43.0835 28.2167V9.41673C43.0836 8.98423 42.7331 8.63349 42.3006 8.63339ZM41.5168 27.4334H36.8168V10.2001H41.5168V27.4334Z" fill="white"/>
</svg>
