<svg width="37" height="37" viewBox="0 0 37 37" fill="none" xmlns="http://www.w3.org/2000/svg">
<path d="M18.4822 34.5329C18.6886 34.5329 18.8903 34.6166 19.0362 34.7624C19.0362 34.7624 19.0362 34.7624 19.0362 34.7625C19.0362 34.7625 19.0362 34.7625 19.0362 34.7625C19.1821 34.9084 19.2658 35.1101 19.2658 35.3165C19.2658 35.5228 19.182 35.7246 19.0362 35.8705C19.0362 35.8705 19.0362 35.8705 19.0362 35.8705L18.9655 35.7998C18.8384 35.9269 18.662 36.0001 18.4822 36.0001C18.3024 36.0001 18.126 35.9269 17.9989 35.7998L18.4822 34.5329ZM18.4822 34.5329C18.2758 34.5329 18.074 34.6166 17.9282 34.7625L18.4822 34.5329ZM17.9282 35.8705C17.9282 35.8705 17.9282 35.8705 17.9282 35.8705L17.9282 35.8705ZM17.9282 35.8705C17.7823 35.7246 17.6986 35.5228 17.6986 35.3165C17.6986 35.1101 17.7823 34.9083 17.9282 34.7625L17.9282 35.8705Z" fill="white" stroke="#4A4D50" stroke-width="0.2"/>
<mask id="path-2-outside-1" maskUnits="userSpaceOnUse" x="0" y="7.20767" width="37" height="29" fill="black">
<rect fill="white" y="7.20767" width="37" height="29"/>
<path d="M32.3469 23.3584L30.0665 22.8137V21.9091C31.3323 21.1091 32.1753 19.6983 32.1753 18.0935V15.5459C32.1753 13.0581 30.1513 11.0342 27.6634 11.0342C26.3214 11.0342 25.1151 11.6239 24.2879 12.5569C23.5634 10.0479 21.2462 8.20767 18.5071 8.20767H18.507C15.7635 8.20767 13.4432 10.0537 12.7227 12.5689C11.8953 11.6289 10.6845 11.0342 9.33677 11.0342C6.8489 11.0342 4.82491 13.0582 4.82491 15.5459V18.0935C4.82491 19.6983 5.66792 21.1092 6.93366 21.9091V22.8137L4.65333 23.3584C2.50227 23.8722 1 25.7756 1 27.9869V32.5821C1 32.9596 1.30611 33.2657 1.68359 33.2657H7.14981V35.3165C7.14981 35.694 7.45593 36.0001 7.83341 36.0001H15.3327C15.7102 36.0001 16.0163 35.694 16.0163 35.3165C16.0163 34.9389 15.7102 34.6329 15.3327 34.6329H12.2809V31.6242C12.2809 31.2467 11.9748 30.9407 11.5973 30.9407C11.2199 30.9407 10.9137 31.2467 10.9137 31.6242V34.6329H8.51693V31.5486C8.51693 29.2303 10.0915 27.2339 12.3461 26.6936L15.7082 25.8879L17.8715 30.8095C17.9806 31.0578 18.2261 31.2181 18.4972 31.2181H18.4973C18.7684 31.2181 19.0139 31.0578 19.123 30.8096L21.2841 25.8952L24.6365 26.696C26.8931 27.235 28.4691 29.2319 28.4691 31.5519V32.3147C28.4341 32.3968 28.4147 32.4871 28.4147 32.582C28.4147 32.6769 28.4341 32.7673 28.4691 32.8494V34.6329H26.0863V31.6242C26.0863 31.2467 25.7801 30.9407 25.4027 30.9407C25.0252 30.9407 24.7191 31.2467 24.7191 31.6242V34.6329H21.3712C20.9937 34.6329 20.6876 34.9389 20.6876 35.3165C20.6876 35.694 20.9937 36.0001 21.3712 36.0001H29.1526C29.5301 36.0001 29.8362 35.694 29.8362 35.3165V33.2657H35.3164C35.6939 33.2657 36 32.9596 36 32.5821V27.9869C36 25.7756 34.4977 23.8722 32.3469 23.3584ZM27.6634 12.4014C29.3973 12.4014 30.808 13.812 30.808 15.5459V15.7152V15.7839H28.8528C27.3758 15.7839 25.9244 15.3961 24.6454 14.661C25.0286 13.3566 26.2365 12.4014 27.6634 12.4014ZM24.5187 17.9819C24.5211 17.9121 24.5228 16.1439 24.5228 16.1439C25.8667 16.8048 27.3482 17.1511 28.8528 17.1511H30.8081V18.0935C30.808 19.8274 29.3973 21.238 27.6634 21.238C25.9294 21.238 24.5187 19.8273 24.5187 18.0935V17.9819ZM13.8584 14.2234C13.8584 11.6602 15.9438 9.57493 18.507 9.57493C21.0702 9.57493 23.1556 11.6602 23.1556 14.2234V14.3125L20.6185 12.8219C20.3306 12.6527 19.9627 12.7164 19.7482 12.9723C18.7625 14.1486 17.3168 14.8233 15.782 14.8233H13.8584V14.2234ZM6.19196 15.7152V15.5459C6.19196 13.812 7.6027 12.4014 9.33663 12.4014C10.7635 12.4014 11.9714 13.3566 12.3546 14.6611C11.0755 15.3961 9.62422 15.7839 8.14718 15.7839H6.19196V15.7152ZM6.19196 18.0935V17.1511H8.14725C9.65334 17.1511 11.1364 16.8041 12.4813 16.1419V18.0935C12.4813 19.8274 11.0706 21.238 9.33663 21.238C7.6027 21.238 6.19196 19.8273 6.19196 18.0935ZM7.14981 31.5486V31.8985H5.10156V28.8614C5.10156 28.4838 4.79545 28.1778 4.41797 28.1778C4.04049 28.1778 3.73438 28.4838 3.73438 28.8614V31.8985H2.36719V27.9869C2.36719 26.4109 3.43783 25.0544 4.97079 24.6882L7.13765 24.1705L8.55187 27.5581C7.66736 28.6569 7.14981 30.0497 7.14981 31.5486ZM9.33677 25.8893L8.29859 23.4025C8.29976 23.3861 8.30071 23.3698 8.30071 23.3532V22.4838C8.63355 22.5623 8.98014 22.6052 9.33663 22.6052C9.69155 22.6052 10.0365 22.5627 10.368 22.4849V23.31C10.3673 23.3228 10.3669 23.3357 10.3669 23.3485C10.3669 23.3701 10.369 23.3915 10.371 23.4128L9.33677 25.8893ZM12.0275 25.3641C11.6239 25.4608 11.2381 25.5954 10.8718 25.7614L11.5377 24.1671L13.7049 24.6865C13.873 24.7267 14.0367 24.78 14.1953 24.8446L12.0275 25.3641ZM15.4206 23.9393C14.9915 23.6731 14.5206 23.476 14.0235 23.3569L11.7352 22.8086V21.9121C12.3043 21.5534 12.7877 21.0713 13.148 20.5034C13.6634 21.5103 14.4544 22.3534 15.4206 22.9334V23.9393ZM20.2044 24.9541L18.4974 28.8359L16.7878 24.9465V23.5366C17.3328 23.6995 17.9098 23.7873 18.507 23.7873C19.0962 23.7873 19.6659 23.7017 20.2044 23.5431V24.9541ZM18.507 22.4202C15.9437 22.4201 13.8584 20.3348 13.8584 17.7717V16.1905H15.7819C17.5267 16.1905 19.1804 15.5009 20.4021 14.2805L23.1516 15.8958V17.9321C23.0665 20.4212 21.0165 22.4202 18.507 22.4202ZM21.5716 22.9462H21.5717C22.5439 22.3682 23.3404 21.5245 23.8597 20.5154C24.2193 21.0781 24.6998 21.5559 25.2648 21.9121V22.8086L22.9765 23.3569C22.4764 23.4768 22.0029 23.6756 21.5716 23.9443V22.9462ZM24.9541 25.3664L22.7922 24.8498C22.9546 24.7828 23.1226 24.7278 23.2951 24.6865L25.4571 24.1684L26.1256 25.7698C25.7546 25.6008 25.3636 25.4642 24.9541 25.3664ZM26.6275 23.423C26.6303 23.3982 26.6322 23.3733 26.6322 23.3482C26.6322 23.3419 26.6322 23.3355 26.632 23.3291V22.4849C26.9635 22.5627 27.3084 22.6052 27.6634 22.6052C28.0199 22.6052 28.3664 22.5623 28.6993 22.4838V23.3532C28.6993 23.3656 28.7002 23.3778 28.7009 23.3902L27.6571 25.8893L26.6275 23.423ZM34.6328 31.8985H33.2656V28.8614C33.2656 28.4838 32.9595 28.1778 32.582 28.1778C32.2046 28.1778 31.8984 28.4838 31.8984 28.8614V31.8985H29.8362V31.5519C29.8362 30.0549 29.3204 28.6641 28.4384 27.5662L29.8571 24.1693L32.0292 24.6882C33.5622 25.0544 34.6328 26.4109 34.6328 27.9869V31.8985Z"/>
</mask>
<path d="M32.3469 23.3584L30.0665 22.8137V21.9091C31.3323 21.1091 32.1753 19.6983 32.1753 18.0935V15.5459C32.1753 13.0581 30.1513 11.0342 27.6634 11.0342C26.3214 11.0342 25.1151 11.6239 24.2879 12.5569C23.5634 10.0479 21.2462 8.20767 18.5071 8.20767H18.507C15.7635 8.20767 13.4432 10.0537 12.7227 12.5689C11.8953 11.6289 10.6845 11.0342 9.33677 11.0342C6.8489 11.0342 4.82491 13.0582 4.82491 15.5459V18.0935C4.82491 19.6983 5.66792 21.1092 6.93366 21.9091V22.8137L4.65333 23.3584C2.50227 23.8722 1 25.7756 1 27.9869V32.5821C1 32.9596 1.30611 33.2657 1.68359 33.2657H7.14981V35.3165C7.14981 35.694 7.45593 36.0001 7.83341 36.0001H15.3327C15.7102 36.0001 16.0163 35.694 16.0163 35.3165C16.0163 34.9389 15.7102 34.6329 15.3327 34.6329H12.2809V31.6242C12.2809 31.2467 11.9748 30.9407 11.5973 30.9407C11.2199 30.9407 10.9137 31.2467 10.9137 31.6242V34.6329H8.51693V31.5486C8.51693 29.2303 10.0915 27.2339 12.3461 26.6936L15.7082 25.8879L17.8715 30.8095C17.9806 31.0578 18.2261 31.2181 18.4972 31.2181H18.4973C18.7684 31.2181 19.0139 31.0578 19.123 30.8096L21.2841 25.8952L24.6365 26.696C26.8931 27.235 28.4691 29.2319 28.4691 31.5519V32.3147C28.4341 32.3968 28.4147 32.4871 28.4147 32.582C28.4147 32.6769 28.4341 32.7673 28.4691 32.8494V34.6329H26.0863V31.6242C26.0863 31.2467 25.7801 30.9407 25.4027 30.9407C25.0252 30.9407 24.7191 31.2467 24.7191 31.6242V34.6329H21.3712C20.9937 34.6329 20.6876 34.9389 20.6876 35.3165C20.6876 35.694 20.9937 36.0001 21.3712 36.0001H29.1526C29.5301 36.0001 29.8362 35.694 29.8362 35.3165V33.2657H35.3164C35.6939 33.2657 36 32.9596 36 32.5821V27.9869C36 25.7756 34.4977 23.8722 32.3469 23.3584ZM27.6634 12.4014C29.3973 12.4014 30.808 13.812 30.808 15.5459V15.7152V15.7839H28.8528C27.3758 15.7839 25.9244 15.3961 24.6454 14.661C25.0286 13.3566 26.2365 12.4014 27.6634 12.4014ZM24.5187 17.9819C24.5211 17.9121 24.5228 16.1439 24.5228 16.1439C25.8667 16.8048 27.3482 17.1511 28.8528 17.1511H30.8081V18.0935C30.808 19.8274 29.3973 21.238 27.6634 21.238C25.9294 21.238 24.5187 19.8273 24.5187 18.0935V17.9819ZM13.8584 14.2234C13.8584 11.6602 15.9438 9.57493 18.507 9.57493C21.0702 9.57493 23.1556 11.6602 23.1556 14.2234V14.3125L20.6185 12.8219C20.3306 12.6527 19.9627 12.7164 19.7482 12.9723C18.7625 14.1486 17.3168 14.8233 15.782 14.8233H13.8584V14.2234ZM6.19196 15.7152V15.5459C6.19196 13.812 7.6027 12.4014 9.33663 12.4014C10.7635 12.4014 11.9714 13.3566 12.3546 14.6611C11.0755 15.3961 9.62422 15.7839 8.14718 15.7839H6.19196V15.7152ZM6.19196 18.0935V17.1511H8.14725C9.65334 17.1511 11.1364 16.8041 12.4813 16.1419V18.0935C12.4813 19.8274 11.0706 21.238 9.33663 21.238C7.6027 21.238 6.19196 19.8273 6.19196 18.0935ZM7.14981 31.5486V31.8985H5.10156V28.8614C5.10156 28.4838 4.79545 28.1778 4.41797 28.1778C4.04049 28.1778 3.73438 28.4838 3.73438 28.8614V31.8985H2.36719V27.9869C2.36719 26.4109 3.43783 25.0544 4.97079 24.6882L7.13765 24.1705L8.55187 27.5581C7.66736 28.6569 7.14981 30.0497 7.14981 31.5486ZM9.33677 25.8893L8.29859 23.4025C8.29976 23.3861 8.30071 23.3698 8.30071 23.3532V22.4838C8.63355 22.5623 8.98014 22.6052 9.33663 22.6052C9.69155 22.6052 10.0365 22.5627 10.368 22.4849V23.31C10.3673 23.3228 10.3669 23.3357 10.3669 23.3485C10.3669 23.3701 10.369 23.3915 10.371 23.4128L9.33677 25.8893ZM12.0275 25.3641C11.6239 25.4608 11.2381 25.5954 10.8718 25.7614L11.5377 24.1671L13.7049 24.6865C13.873 24.7267 14.0367 24.78 14.1953 24.8446L12.0275 25.3641ZM15.4206 23.9393C14.9915 23.6731 14.5206 23.476 14.0235 23.3569L11.7352 22.8086V21.9121C12.3043 21.5534 12.7877 21.0713 13.148 20.5034C13.6634 21.5103 14.4544 22.3534 15.4206 22.9334V23.9393ZM20.2044 24.9541L18.4974 28.8359L16.7878 24.9465V23.5366C17.3328 23.6995 17.9098 23.7873 18.507 23.7873C19.0962 23.7873 19.6659 23.7017 20.2044 23.5431V24.9541ZM18.507 22.4202C15.9437 22.4201 13.8584 20.3348 13.8584 17.7717V16.1905H15.7819C17.5267 16.1905 19.1804 15.5009 20.4021 14.2805L23.1516 15.8958V17.9321C23.0665 20.4212 21.0165 22.4202 18.507 22.4202ZM21.5716 22.9462H21.5717C22.5439 22.3682 23.3404 21.5245 23.8597 20.5154C24.2193 21.0781 24.6998 21.5559 25.2648 21.9121V22.8086L22.9765 23.3569C22.4764 23.4768 22.0029 23.6756 21.5716 23.9443V22.9462ZM24.9541 25.3664L22.7922 24.8498C22.9546 24.7828 23.1226 24.7278 23.2951 24.6865L25.4571 24.1684L26.1256 25.7698C25.7546 25.6008 25.3636 25.4642 24.9541 25.3664ZM26.6275 23.423C26.6303 23.3982 26.6322 23.3733 26.6322 23.3482C26.6322 23.3419 26.6322 23.3355 26.632 23.3291V22.4849C26.9635 22.5627 27.3084 22.6052 27.6634 22.6052C28.0199 22.6052 28.3664 22.5623 28.6993 22.4838V23.3532C28.6993 23.3656 28.7002 23.3778 28.7009 23.3902L27.6571 25.8893L26.6275 23.423ZM34.6328 31.8985H33.2656V28.8614C33.2656 28.4838 32.9595 28.1778 32.582 28.1778C32.2046 28.1778 31.8984 28.4838 31.8984 28.8614V31.8985H29.8362V31.5519C29.8362 30.0549 29.3204 28.6641 28.4384 27.5662L29.8571 24.1693L32.0292 24.6882C33.5622 25.0544 34.6328 26.4109 34.6328 27.9869V31.8985Z" fill="white"/>
<path d="M32.3469 23.3584L30.0665 22.8137V21.9091C31.3323 21.1091 32.1753 19.6983 32.1753 18.0935V15.5459C32.1753 13.0581 30.1513 11.0342 27.6634 11.0342C26.3214 11.0342 25.1151 11.6239 24.2879 12.5569C23.5634 10.0479 21.2462 8.20767 18.5071 8.20767H18.507C15.7635 8.20767 13.4432 10.0537 12.7227 12.5689C11.8953 11.6289 10.6845 11.0342 9.33677 11.0342C6.8489 11.0342 4.82491 13.0582 4.82491 15.5459V18.0935C4.82491 19.6983 5.66792 21.1092 6.93366 21.9091V22.8137L4.65333 23.3584C2.50227 23.8722 1 25.7756 1 27.9869V32.5821C1 32.9596 1.30611 33.2657 1.68359 33.2657H7.14981V35.3165C7.14981 35.694 7.45593 36.0001 7.83341 36.0001H15.3327C15.7102 36.0001 16.0163 35.694 16.0163 35.3165C16.0163 34.9389 15.7102 34.6329 15.3327 34.6329H12.2809V31.6242C12.2809 31.2467 11.9748 30.9407 11.5973 30.9407C11.2199 30.9407 10.9137 31.2467 10.9137 31.6242V34.6329H8.51693V31.5486C8.51693 29.2303 10.0915 27.2339 12.3461 26.6936L15.7082 25.8879L17.8715 30.8095C17.9806 31.0578 18.2261 31.2181 18.4972 31.2181H18.4973C18.7684 31.2181 19.0139 31.0578 19.123 30.8096L21.2841 25.8952L24.6365 26.696C26.8931 27.235 28.4691 29.2319 28.4691 31.5519V32.3147C28.4341 32.3968 28.4147 32.4871 28.4147 32.582C28.4147 32.6769 28.4341 32.7673 28.4691 32.8494V34.6329H26.0863V31.6242C26.0863 31.2467 25.7801 30.9407 25.4027 30.9407C25.0252 30.9407 24.7191 31.2467 24.7191 31.6242V34.6329H21.3712C20.9937 34.6329 20.6876 34.9389 20.6876 35.3165C20.6876 35.694 20.9937 36.0001 21.3712 36.0001H29.1526C29.5301 36.0001 29.8362 35.694 29.8362 35.3165V33.2657H35.3164C35.6939 33.2657 36 32.9596 36 32.5821V27.9869C36 25.7756 34.4977 23.8722 32.3469 23.3584ZM27.6634 12.4014C29.3973 12.4014 30.808 13.812 30.808 15.5459V15.7152V15.7839H28.8528C27.3758 15.7839 25.9244 15.3961 24.6454 14.661C25.0286 13.3566 26.2365 12.4014 27.6634 12.4014ZM24.5187 17.9819C24.5211 17.9121 24.5228 16.1439 24.5228 16.1439C25.8667 16.8048 27.3482 17.1511 28.8528 17.1511H30.8081V18.0935C30.808 19.8274 29.3973 21.238 27.6634 21.238C25.9294 21.238 24.5187 19.8273 24.5187 18.0935V17.9819ZM13.8584 14.2234C13.8584 11.6602 15.9438 9.57493 18.507 9.57493C21.0702 9.57493 23.1556 11.6602 23.1556 14.2234V14.3125L20.6185 12.8219C20.3306 12.6527 19.9627 12.7164 19.7482 12.9723C18.7625 14.1486 17.3168 14.8233 15.782 14.8233H13.8584V14.2234ZM6.19196 15.7152V15.5459C6.19196 13.812 7.6027 12.4014 9.33663 12.4014C10.7635 12.4014 11.9714 13.3566 12.3546 14.6611C11.0755 15.3961 9.62422 15.7839 8.14718 15.7839H6.19196V15.7152ZM6.19196 18.0935V17.1511H8.14725C9.65334 17.1511 11.1364 16.8041 12.4813 16.1419V18.0935C12.4813 19.8274 11.0706 21.238 9.33663 21.238C7.6027 21.238 6.19196 19.8273 6.19196 18.0935ZM7.14981 31.5486V31.8985H5.10156V28.8614C5.10156 28.4838 4.79545 28.1778 4.41797 28.1778C4.04049 28.1778 3.73438 28.4838 3.73438 28.8614V31.8985H2.36719V27.9869C2.36719 26.4109 3.43783 25.0544 4.97079 24.6882L7.13765 24.1705L8.55187 27.5581C7.66736 28.6569 7.14981 30.0497 7.14981 31.5486ZM9.33677 25.8893L8.29859 23.4025C8.29976 23.3861 8.30071 23.3698 8.30071 23.3532V22.4838C8.63355 22.5623 8.98014 22.6052 9.33663 22.6052C9.69155 22.6052 10.0365 22.5627 10.368 22.4849V23.31C10.3673 23.3228 10.3669 23.3357 10.3669 23.3485C10.3669 23.3701 10.369 23.3915 10.371 23.4128L9.33677 25.8893ZM12.0275 25.3641C11.6239 25.4608 11.2381 25.5954 10.8718 25.7614L11.5377 24.1671L13.7049 24.6865C13.873 24.7267 14.0367 24.78 14.1953 24.8446L12.0275 25.3641ZM15.4206 23.9393C14.9915 23.6731 14.5206 23.476 14.0235 23.3569L11.7352 22.8086V21.9121C12.3043 21.5534 12.7877 21.0713 13.148 20.5034C13.6634 21.5103 14.4544 22.3534 15.4206 22.9334V23.9393ZM20.2044 24.9541L18.4974 28.8359L16.7878 24.9465V23.5366C17.3328 23.6995 17.9098 23.7873 18.507 23.7873C19.0962 23.7873 19.6659 23.7017 20.2044 23.5431V24.9541ZM18.507 22.4202C15.9437 22.4201 13.8584 20.3348 13.8584 17.7717V16.1905H15.7819C17.5267 16.1905 19.1804 15.5009 20.4021 14.2805L23.1516 15.8958V17.9321C23.0665 20.4212 21.0165 22.4202 18.507 22.4202ZM21.5716 22.9462H21.5717C22.5439 22.3682 23.3404 21.5245 23.8597 20.5154C24.2193 21.0781 24.6998 21.5559 25.2648 21.9121V22.8086L22.9765 23.3569C22.4764 23.4768 22.0029 23.6756 21.5716 23.9443V22.9462ZM24.9541 25.3664L22.7922 24.8498C22.9546 24.7828 23.1226 24.7278 23.2951 24.6865L25.4571 24.1684L26.1256 25.7698C25.7546 25.6008 25.3636 25.4642 24.9541 25.3664ZM26.6275 23.423C26.6303 23.3982 26.6322 23.3733 26.6322 23.3482C26.6322 23.3419 26.6322 23.3355 26.632 23.3291V22.4849C26.9635 22.5627 27.3084 22.6052 27.6634 22.6052C28.0199 22.6052 28.3664 22.5623 28.6993 22.4838V23.3532C28.6993 23.3656 28.7002 23.3778 28.7009 23.3902L27.6571 25.8893L26.6275 23.423ZM34.6328 31.8985H33.2656V28.8614C33.2656 28.4838 32.9595 28.1778 32.582 28.1778C32.2046 28.1778 31.8984 28.4838 31.8984 28.8614V31.8985H29.8362V31.5519C29.8362 30.0549 29.3204 28.6641 28.4384 27.5662L29.8571 24.1693L32.0292 24.6882C33.5622 25.0544 34.6328 26.4109 34.6328 27.9869V31.8985Z" stroke="#4A4D50" stroke-width="0.4" mask="url(#path-2-outside-1)"/>
<path d="M17.1524 2.79282H16.6836C16.2509 2.79282 15.9 3.14363 15.9 3.57642C15.9 4.0092 16.2509 4.36001 16.6836 4.36001H17.1524C17.5851 4.36001 17.936 4.0092 17.936 3.57642C17.936 3.14363 17.5851 2.79282 17.1524 2.79282Z" fill="white" stroke="#4A4D50" stroke-width="0.2"/>
<path d="M20.4692 2.79282H20.0004C19.5677 2.79282 19.2168 3.14363 19.2168 3.57642C19.2168 4.00919 19.5676 4.36001 20.0004 4.36001H20.4692C20.9019 4.36001 21.2528 4.0092 21.2528 3.57642C21.2528 3.14363 20.9019 2.79282 20.4692 2.79282Z" fill="white" stroke="#4A4D50" stroke-width="0.2"/>
<path d="M18.5764 4.21689C18.1437 4.21689 17.7928 4.5677 17.7928 5.00049V5.46937C17.7928 5.90214 18.1436 6.25296 18.5764 6.25296C19.0091 6.25296 19.36 5.90215 19.36 5.46937V5.00049C19.36 4.5677 19.0091 4.21689 18.5764 4.21689Z" fill="white" stroke="#4A4D50" stroke-width="0.2"/>
<path d="M18.5764 0.9C18.1437 0.9 17.7928 1.25081 17.7928 1.68359V2.15247C17.7928 2.58525 18.1436 2.93606 18.5764 2.93606C19.0091 2.93606 19.36 2.58525 19.36 2.15247V1.68359C19.36 1.25081 19.0091 0.9 18.5764 0.9Z" fill="white" stroke="#4A4D50" stroke-width="0.2"/>
</svg>
