<svg width="25" height="25" viewBox="0 0 25 25" fill="none" xmlns="http://www.w3.org/2000/svg">
<path class="btn-play-icon" d="M10.5957 20.8815H9.00822L8.60634 20.4796L22.8933 6.08902C24.2519 4.7205 25 2.90489 25 0.976562C25 0.437164 24.5628 0 24.0234 0H23.9326C21.9992 0 20.1801 0.751495 18.8105 2.1162L4.50134 16.3746L4.10042 15.9737V14.4043C4.10042 13.8649 3.66325 13.4277 3.12386 13.4277C2.58446 13.4277 2.14729 13.8649 2.14729 14.4043V16.3782C2.14729 16.6372 2.25029 16.8856 2.4334 17.0687L4.50001 19.1355L2.47154 21.1639C2.30637 21.1185 2.1328 21.0938 1.95312 21.0938C0.874519 21.0938 0 21.9683 0 23.0469C0 24.1255 0.874519 25 1.95312 25C3.03173 25 3.90625 24.1255 3.90625 23.0469C3.90625 22.8767 3.88432 22.7116 3.8435 22.5542L5.88112 20.5166L7.91321 22.5487C8.09631 22.7318 8.34484 22.8346 8.60386 22.8346H10.5957C11.1351 22.8346 11.5723 22.3974 11.5723 21.858C11.5723 21.3188 11.1351 20.8815 10.5957 20.8815V20.8815ZM20.1891 3.49979C20.9517 2.7401 21.9044 2.24037 22.9397 2.04544C22.7354 3.04794 22.2441 3.97072 21.5069 4.71344L7.22523 19.0985L5.88226 17.7555L20.1891 3.49979ZM2.09808 6.08521C0.745773 4.71935 0 2.90623 0 0.981522V0.976562C0 0.437164 0.437164 0 0.976562 0H1.06239C2.9995 0 4.82101 0.753975 6.19144 2.12307L10.6028 6.5361C10.984 6.91757 10.984 7.53593 10.6026 7.91721C10.2211 8.29849 9.60274 8.2983 9.22146 7.91702L4.81052 3.50437C4.04854 2.74315 3.09544 2.24209 2.05956 2.0462C2.26288 3.04813 2.75249 3.97034 3.48778 4.71287L7.9277 9.22146C8.30631 9.60579 8.30154 10.2242 7.91721 10.6026C7.72686 10.7899 7.47948 10.8833 7.23209 10.8833C6.97956 10.8833 6.72722 10.7861 6.5361 10.5919L2.09808 6.08521ZM25 23.0469C25 24.1255 24.1255 25 23.0469 25C21.9683 25 21.0938 24.1255 21.0938 23.0469C21.0938 22.8767 21.1157 22.7116 21.1565 22.5542L19.1189 20.5166L17.0868 22.5487C16.9037 22.7318 16.6552 22.8346 16.3961 22.8346H14.4531C13.9137 22.8346 13.4766 22.3974 13.4766 21.858C13.4766 21.3188 13.9137 20.8815 14.4531 20.8815H15.9918L16.3944 20.4788L14.4432 18.5097C14.0635 18.1265 14.0663 17.5081 14.4493 17.1286C14.8325 16.749 15.4509 16.7517 15.8304 17.1349L17.7755 19.0977L19.1113 17.762L17.0906 15.786C16.7051 15.4089 16.6983 14.7905 17.0753 14.4051C17.4524 14.0194 18.0708 14.0125 18.4563 14.3896L20.4924 16.3809L20.8996 15.9737V14.4043C20.8996 13.8649 21.3367 13.4277 21.8761 13.4277C22.4155 13.4277 22.8527 13.8649 22.8527 14.4043V16.3782C22.8527 16.6372 22.7499 16.8856 22.5668 17.0687L20.5 19.1355L22.5285 21.1639C22.6936 21.1185 22.8672 21.0938 23.0469 21.0938C24.1255 21.0938 25 21.9683 25 23.0469V23.0469Z" fill="url(#paint0_linear)"/>
<defs>
<linearGradient id="paint0_linear" x1="1.28205" y1="11.9565" x2="25" y2="11.9565" gradientUnits="userSpaceOnUse">
<stop stop-color="#F4AC26"/>
<stop offset="1" stop-color="#FDCB0C"/>
</linearGradient>
</defs>
</svg>

