<svg width="34" height="40" viewBox="0 0 34 40" fill="none" xmlns="http://www.w3.org/2000/svg">
<path d="M33.3203 3.85735C32.7724 3.20829 31.9734 2.83618 31.1282 2.83618H28.354V1.96196C28.354 0.880158 27.4803 0 26.4065 0H7.59364C6.51973 0 5.64622 0.880158 5.64622 1.96188V2.8361H2.87173C2.02652 2.8361 1.22745 3.20829 0.679636 3.85727C0.13741 4.49954 -0.0969446 5.34314 0.0368283 6.17165C0.765793 10.6873 3.58666 14.6766 7.59015 16.8648C7.95595 17.7508 8.37022 18.59 8.83156 19.3719C10.3052 21.87 12.1371 23.5964 14.1535 24.4313C14.3579 26.5129 12.983 28.4848 10.9124 28.9547C10.908 28.9558 10.9049 28.9573 10.9006 28.9583C10.4965 29.0556 10.1957 29.4209 10.1957 29.8578V34.1049H8.49065C6.97053 34.1049 5.73385 35.3508 5.73385 36.8822V39.0742C5.73385 39.5855 6.14525 40 6.65281 40H27.4351C27.9426 40 28.354 39.5855 28.354 39.0742V36.8822C28.354 35.3508 27.1173 34.1049 25.5972 34.1049H23.8921V29.8579C23.8921 29.4201 23.5902 29.0543 23.185 28.9579C23.1812 28.9569 23.1775 28.9557 23.1737 28.9547C21.0875 28.4817 19.71 26.4899 19.9359 24.3927C21.9171 23.5443 23.717 21.8332 25.1688 19.3721C25.6302 18.5901 26.0444 17.7508 26.4102 16.8646C30.4135 14.6764 33.2342 10.6871 33.9632 6.17165C34.0969 5.34314 33.8626 4.49962 33.3203 3.85735ZM1.85087 5.87439C1.8031 5.57853 1.88429 5.28814 2.07956 5.05673C2.2777 4.82204 2.56634 4.68751 2.87165 4.68751H5.64614V6.39079C5.64614 9.06158 5.98449 11.6486 6.62574 14.0145C4.10569 12.0083 2.3706 9.094 1.85087 5.87439ZM25.5972 35.9566C26.1039 35.9566 26.5162 36.3719 26.5162 36.8823V38.1486H7.57169V36.8823C7.57169 36.3719 7.98394 35.9566 8.49065 35.9566H25.5972ZM22.0541 30.7837V34.105H12.0337V30.7837H22.0541ZM14.4437 28.9322C14.6709 28.6803 14.8786 28.4072 15.0643 28.115C15.6767 27.151 15.9981 26.0558 16.0126 24.9373C16.339 24.9821 16.6684 25.0061 17.0006 25.0061C17.3621 25.0061 17.7202 24.9781 18.0748 24.9251C18.0958 26.4282 18.6765 27.8509 19.6529 28.9321H14.4437V28.9322ZM26.516 6.39087C26.516 10.9517 25.4764 15.226 23.5888 18.426C21.7902 21.4752 19.4504 23.1545 17.0005 23.1545C14.5501 23.1545 12.2102 21.4753 10.4114 18.4261C8.52369 15.226 7.48406 10.9518 7.48406 6.39103V1.96188C7.48406 1.90094 7.53323 1.85149 7.59356 1.85149H26.4064C26.4669 1.85149 26.516 1.90102 26.516 1.96188V6.39087ZM32.1491 5.87439C31.6294 9.09377 29.8945 12.008 27.3745 14.0143C28.0157 11.6485 28.354 9.06158 28.354 6.39087V4.68759H31.1282C31.4336 4.68759 31.7222 4.8222 31.9203 5.05681C32.1156 5.28814 32.1968 5.57853 32.1491 5.87439Z" fill="white"/>
<path d="M22.5789 9.50457C22.4707 9.16957 22.1832 8.92535 21.8371 8.87457L19.0641 8.46864L17.824 5.93722C17.6691 5.62129 17.3497 5.42121 16.9999 5.42121C16.6501 5.42121 16.3307 5.62129 16.1759 5.93722L14.9358 8.46864L12.1628 8.87457C11.8166 8.9252 11.529 9.1695 11.4209 9.50465C11.3129 9.83989 11.403 10.2077 11.6535 10.4537L13.6601 12.4241L13.1864 15.2064C13.1272 15.5537 13.2689 15.9047 13.5519 16.1119C13.8348 16.319 14.2101 16.3462 14.5197 16.1823L16.9999 14.8688L19.4801 16.1823C19.6146 16.2535 19.7614 16.2886 19.9076 16.2886C20.098 16.2886 20.2877 16.229 20.4478 16.1118C20.7308 15.9046 20.8725 15.5536 20.8134 15.2063L20.3396 12.424L22.3462 10.4536C22.5968 10.2077 22.6869 9.83981 22.5789 9.50457ZM18.711 11.4379C18.4944 11.6506 18.3955 11.957 18.4467 12.2574L18.6873 13.6707L17.4275 13.0034C17.2937 12.9325 17.1467 12.8972 16.9999 12.8972C16.853 12.8972 16.7061 12.9326 16.5722 13.0034L15.3125 13.6707L15.553 12.2574C15.6042 11.9571 15.5053 11.6507 15.2887 11.4379L14.2696 10.4372L15.6781 10.2309C15.9774 10.1872 16.2361 9.9977 16.37 9.7245L16.9999 8.43871L17.6298 9.7245C17.7637 9.9977 18.0223 10.1871 18.3217 10.2309L19.7301 10.4372L18.711 11.4379Z" fill="white"/>
</svg>
