<svg width="65" height="65" viewBox="0 0 65 65" fill="none" xmlns="http://www.w3.org/2000/svg">
<g filter="url(#filter0_d)">
<path d="M30.5957 40.8815H29.0082L28.6063 40.4796L42.8933 26.089C44.2519 24.7205 45 22.9049 45 20.9766C45 20.4372 44.5628 20 44.0234 20H43.9326C41.9992 20 40.1801 20.7515 38.8105 22.1162L24.5013 36.3746L24.1004 35.9737V34.4043C24.1004 33.8649 23.6633 33.4277 23.1239 33.4277C22.5845 33.4277 22.1473 33.8649 22.1473 34.4043V36.3782C22.1473 36.6372 22.2503 36.8856 22.4334 37.0687L24.5 39.1355L22.4715 41.1639C22.3064 41.1185 22.1328 41.0938 21.9531 41.0938C20.8745 41.0938 20 41.9683 20 43.0469C20 44.1255 20.8745 45 21.9531 45C23.0317 45 23.9062 44.1255 23.9062 43.0469C23.9062 42.8767 23.8843 42.7116 23.8435 42.5542L25.8811 40.5166L27.9132 42.5487C28.0963 42.7318 28.3448 42.8346 28.6039 42.8346H30.5957C31.1351 42.8346 31.5723 42.3974 31.5723 41.858C31.5723 41.3188 31.1351 40.8815 30.5957 40.8815V40.8815ZM40.1891 23.4998C40.9517 22.7401 41.9044 22.2404 42.9397 22.0454C42.7354 23.0479 42.2441 23.9707 41.5069 24.7134L27.2252 39.0985L25.8823 37.7555L40.1891 23.4998ZM22.0981 26.0852C20.7458 24.7194 20 22.9062 20 20.9815V20.9766C20 20.4372 20.4372 20 20.9766 20H21.0624C22.9995 20 24.821 20.754 26.1914 22.1231L30.6028 26.5361C30.984 26.9176 30.984 27.5359 30.6026 27.9172C30.2211 28.2985 29.6027 28.2983 29.2215 27.917L24.8105 23.5044C24.0485 22.7431 23.0954 22.2421 22.0596 22.0462C22.2629 23.0481 22.7525 23.9703 23.4878 24.7129L27.9277 29.2215C28.3063 29.6058 28.3015 30.2242 27.9172 30.6026C27.7269 30.7899 27.4795 30.8833 27.2321 30.8833C26.9796 30.8833 26.7272 30.7861 26.5361 30.5919L22.0981 26.0852ZM45 43.0469C45 44.1255 44.1255 45 43.0469 45C41.9683 45 41.0938 44.1255 41.0938 43.0469C41.0938 42.8767 41.1157 42.7116 41.1565 42.5542L39.1189 40.5166L37.0868 42.5487C36.9037 42.7318 36.6552 42.8346 36.3961 42.8346H34.4531C33.9137 42.8346 33.4766 42.3974 33.4766 41.858C33.4766 41.3188 33.9137 40.8815 34.4531 40.8815H35.9918L36.3944 40.4788L34.4432 38.5097C34.0635 38.1265 34.0663 37.5081 34.4493 37.1286C34.8325 36.749 35.4509 36.7517 35.8304 37.1349L37.7755 39.0977L39.1113 37.762L37.0906 35.786C36.7051 35.4089 36.6983 34.7905 37.0753 34.4051C37.4524 34.0194 38.0708 34.0125 38.4563 34.3896L40.4924 36.3809L40.8996 35.9737V34.4043C40.8996 33.8649 41.3367 33.4277 41.8761 33.4277C42.4155 33.4277 42.8527 33.8649 42.8527 34.4043V36.3782C42.8527 36.6372 42.7499 36.8856 42.5668 37.0687L40.5 39.1355L42.5285 41.1639C42.6936 41.1185 42.8672 41.0938 43.0469 41.0938C44.1255 41.0938 45 41.9683 45 43.0469V43.0469Z" fill="url(#paint0_linear)"/>
</g>
<defs>
<filter id="filter0_d" x="0" y="0" width="65" height="65" filterUnits="userSpaceOnUse" color-interpolation-filters="sRGB">
<feFlood flood-opacity="0" result="BackgroundImageFix"/>
<feColorMatrix in="SourceAlpha" type="matrix" values="0 0 0 0 0 0 0 0 0 0 0 0 0 0 0 0 0 0 127 0"/>
<feOffset/>
<feGaussianBlur stdDeviation="10"/>
<feColorMatrix type="matrix" values="0 0 0 0 0.972549 0 0 0 0 0.729412 0 0 0 0 0.0980392 0 0 0 1 0"/>
<feBlend mode="normal" in2="BackgroundImageFix" result="effect1_dropShadow"/>
<feBlend mode="normal" in="SourceGraphic" in2="effect1_dropShadow" result="shape"/>
</filter>
<linearGradient id="paint0_linear" x1="21.2821" y1="31.9565" x2="45" y2="31.9565" gradientUnits="userSpaceOnUse">
<stop stop-color="#F4AC26"/>
<stop offset="1" stop-color="#FDCB0C"/>
</linearGradient>
</defs>
</svg>
