<svg width="45" height="32" viewBox="0 0 45 32" fill="none" xmlns="http://www.w3.org/2000/svg">
<path d="M29.0394 16.8667C28.9544 16.6044 28.7269 16.4131 28.4533 16.3735L24.79 15.8425L23.1516 12.5314C23.0292 12.284 22.7766 12.1274 22.5001 12.1274C22.2235 12.1274 21.971 12.2841 21.8486 12.5314L20.2102 15.8425L16.5468 16.3735C16.2731 16.4131 16.0457 16.6043 15.9602 16.8667C15.8748 17.129 15.9461 17.417 16.144 17.6095L18.7949 20.1868L18.1691 23.8261C18.1224 24.0979 18.2345 24.3727 18.4582 24.5348C18.6819 24.6968 18.9784 24.7183 19.2233 24.59L22.4999 22.8717L25.7766 24.59C25.8829 24.6457 25.999 24.6732 26.1146 24.6732C26.2653 24.6732 26.4152 24.6265 26.5418 24.5347C26.7655 24.3726 26.8776 24.0979 26.8307 23.826L26.205 20.1867L28.8558 17.6095C29.0537 17.4169 29.1249 17.129 29.0394 16.8667ZM24.9172 19.4149C24.7459 19.5814 24.6678 19.8214 24.7084 20.0565L25.1499 22.6239L22.8382 21.4117C22.6265 21.3008 22.3737 21.3008 22.1621 21.4117L19.8504 22.6239L20.2918 20.0564C20.3324 19.8213 20.2541 19.5815 20.083 19.415L18.2128 17.5968L20.7974 17.2222C21.0341 17.1879 21.2387 17.0397 21.3444 16.8258L22.5004 14.4898L23.6563 16.8258C23.7622 17.0396 23.9666 17.1879 24.2033 17.2222L26.7878 17.5968L24.9172 19.4149Z" fill="white"/>
<path d="M10.2938 12.6678C13.2562 12.6678 16.0376 10.8273 17.0813 7.88729C17.2151 7.50999 17.0171 7.09587 16.6388 6.96235C14.8371 6.32601 12.8956 6.42445 11.1681 7.23788C11.6059 6.66526 12.0861 6.11465 12.6105 5.59174C12.8942 5.30876 12.8942 4.84985 12.6105 4.56696C12.3267 4.28398 11.8666 4.28398 11.5829 4.56696C11.2085 4.9404 10.8556 5.32726 10.5216 5.72472C10.4421 3.57215 9.39963 1.47753 7.50813 0.134963C7.18109 -0.0970816 6.72749 -0.0208151 6.49493 0.305205C5.38092 1.86666 4.94313 3.76729 5.26235 5.65705C5.55784 7.40593 6.46971 8.95065 7.84449 10.0521C7.60569 10.6039 7.39704 11.1655 7.21704 11.7345C7.07457 11.4166 6.90819 11.1067 6.71791 10.8073C5.68888 9.18883 4.08963 8.06691 2.21474 7.64814C2.02692 7.60615 1.82961 7.64043 1.66692 7.74335C1.50415 7.84626 1.38919 8.00949 1.347 8.197C0.510456 11.923 2.75844 15.633 6.39605 16.664C6.37777 17.4322 6.41029 18.2011 6.49141 18.9658C6.32293 18.8164 6.14715 18.6736 5.96319 18.5386C4.415 17.4037 2.51682 16.938 0.61698 17.2271C0.220241 17.2875 -0.0521317 17.6572 0.00842499 18.0528C0.298376 19.9473 1.3107 21.6157 2.85889 22.7507C4.10721 23.6659 5.58324 24.1459 7.10392 24.1459C7.34729 24.1459 7.59189 24.1324 7.83676 24.1077C8.13383 24.7963 8.47651 25.4699 8.86517 26.1237C6.61736 25.4049 4.06001 25.7979 2.10172 27.3974C1.79137 27.651 1.74567 28.1075 1.99994 28.4172C3.21722 29.8999 4.94058 30.8211 6.85256 31.0109C7.09558 31.0351 7.33763 31.047 7.57853 31.047C9.06239 31.047 10.494 30.592 11.7097 29.7345C12.5276 30.5341 13.4205 31.2561 14.3676 31.8799C14.4909 31.9611 14.6299 32 14.7674 32C15.0033 32 15.2346 31.8855 15.3743 31.6745C15.5954 31.3405 15.5032 30.891 15.1684 30.6705C14.2537 30.0681 13.3931 29.3668 12.6105 28.5863C10.8601 26.8404 9.5929 24.7928 8.80663 22.6101C12.2567 21.2838 14.176 17.5076 13.12 13.9054C13.0075 13.5213 12.6041 13.301 12.2188 13.4131C10.3746 13.951 8.85084 15.173 7.92808 16.8539C7.89872 16.9074 7.87218 16.9618 7.84432 17.0158C7.85117 15.474 8.07547 13.9332 8.51809 12.4434C9.10889 12.5946 9.70478 12.6678 10.2938 12.6678ZM6.3638 15.1305C3.95753 14.2389 2.42849 11.8339 2.64611 9.2828C3.81761 9.71507 4.81033 10.5131 5.4906 11.5832C6.17088 12.6533 6.47146 13.8893 6.3638 15.1305ZM3.71952 21.5829C2.69595 20.8324 1.96584 19.7898 1.61401 18.5945C1.64486 18.594 1.67562 18.5937 1.70647 18.5937C4.23553 18.5937 6.49001 20.2694 7.20772 22.6955C5.95871 22.7161 4.74309 22.3334 3.71952 21.5829ZM6.99661 29.5687C5.73248 29.4432 4.57171 28.917 3.65826 28.0673C5.84551 26.7274 8.68666 27.0095 10.5663 28.7533C9.50281 29.4066 8.26057 29.6941 6.99661 29.5687ZM9.20258 17.5499C9.81271 16.4385 10.7521 15.5786 11.8933 15.0722C12.2745 17.604 10.9033 20.102 8.55939 21.1457C8.37227 19.914 8.59262 18.6613 9.20258 17.5499ZM11.7664 8.558C12.9131 8.01239 14.1795 7.86301 15.4019 8.11811C14.2264 10.3941 11.6497 11.6205 9.13613 11.0994C9.70672 9.99112 10.6199 9.10371 11.7664 8.558ZM6.69515 5.41615C6.48403 4.1666 6.68767 2.91117 7.26942 1.80872C9.1407 3.56111 9.61514 6.3694 8.42281 8.63672C7.51103 7.78525 6.90617 6.66561 6.69515 5.41615Z" fill="white"/>
<path d="M37.8961 24.1455C39.4167 24.1455 40.893 23.6654 42.1411 22.7502C43.6892 21.6152 44.7017 19.9469 44.9916 18.0523C45.0522 17.6567 44.7796 17.2871 44.3831 17.2266C42.1803 16.8911 40.0545 17.5952 38.5082 18.9701C38.5896 18.2037 38.6223 17.4331 38.604 16.6633C40.3063 16.1821 41.7535 15.1085 42.7086 13.6061C43.7375 11.9877 44.0729 10.0664 43.6531 8.19639C43.5656 7.80576 43.177 7.5603 42.7855 7.64753C40.9106 8.06621 39.3112 9.18821 38.2824 10.8067C38.092 11.1061 37.9257 11.4161 37.7832 11.734C37.6033 11.165 37.3945 10.6034 37.1557 10.0515C40.0969 7.69206 40.7218 3.41111 38.5054 0.30459C38.3937 0.147935 38.2242 0.042038 38.0342 0.0102162C37.844 -0.0220439 37.6492 0.0228398 37.4922 0.134347C35.9267 1.24548 34.8887 2.8982 34.5694 4.78804C34.517 5.09898 34.4869 5.4101 34.475 5.72008C34.142 5.32401 33.7903 4.93856 33.4171 4.56643C33.1334 4.28345 32.6734 4.28336 32.3896 4.56643C32.1059 4.84941 32.1059 5.30832 32.3896 5.59121C32.9139 6.11421 33.3941 6.66474 33.8319 7.23735C32.1045 6.42401 30.163 6.32539 28.3613 6.96183C27.983 7.09534 27.785 7.50946 27.9188 7.88676C28.9625 10.8271 31.7436 12.6673 34.7063 12.6673C35.295 12.6673 35.8911 12.5942 36.4819 12.443C36.9253 13.9349 37.1495 15.4783 37.1558 17.0224C36.2847 15.3324 34.7499 13.9868 32.7814 13.4127C32.3962 13.3003 31.9928 13.5208 31.8802 13.9049C31.3409 15.7444 31.552 17.6831 32.4747 19.3641C33.3 20.8675 34.6071 22.0022 36.1932 22.6102C35.4069 24.7928 34.1397 26.8402 32.3896 28.5859C31.6073 29.3664 30.7465 30.0675 29.8316 30.6701C29.4968 30.8907 29.4045 31.3402 29.6257 31.6742C29.7653 31.8852 29.9968 31.9996 30.2327 31.9996C30.3701 31.9996 30.5092 31.9608 30.6324 31.8796C31.58 31.2555 32.4729 30.5335 33.2907 29.7338C34.5383 30.6123 35.9869 31.0428 37.4284 31.0428C39.5123 31.0428 41.58 30.1467 43.0004 28.4169C43.1224 28.2682 43.1803 28.0772 43.1612 27.8859C43.1421 27.6947 43.0476 27.5189 42.8986 27.397C41.412 26.1829 39.5403 25.619 37.6285 25.8086C37.1161 25.8596 36.618 25.9646 36.1388 26.1171C36.5259 25.4654 36.8674 24.7939 37.1635 24.1074C37.4081 24.1321 37.6526 24.1455 37.8961 24.1455ZM42.3546 9.28289C42.4621 10.524 42.1617 11.76 41.4814 12.8301C40.8011 13.9002 39.8083 14.6982 38.6369 15.1305C38.4193 12.5795 39.9484 10.1743 42.3546 9.28289ZM43.3855 18.594C42.6588 21.0493 40.358 22.7335 37.7927 22.6945C38.5193 20.2391 40.8186 18.5518 43.3855 18.594ZM29.5982 8.11767C30.8206 7.86248 32.0868 8.01203 33.2334 8.55756C34.38 9.10309 35.2933 9.99068 35.8638 11.0989C33.3496 11.6195 30.7736 10.3937 29.5982 8.11767ZM36.5768 8.6362C35.9949 7.53374 35.7914 6.27832 36.0025 5.02876C36.2136 3.7793 36.8184 2.65966 37.7302 1.80819C38.9225 4.07543 38.4481 6.88381 36.5768 8.6362ZM37.7722 27.2507C39.0368 27.1252 40.2784 27.4127 41.3419 28.0661C39.4623 29.8098 36.621 30.092 34.4338 28.7522C35.3473 27.9024 36.508 27.3763 37.7722 27.2507ZM36.4401 21.1456C35.2988 20.6392 34.3596 19.7793 33.7494 18.6679C33.1393 17.5565 32.9191 16.3038 33.1062 15.0721C35.4501 16.1157 36.8214 18.6138 36.4401 21.1456Z" fill="white"/>
</svg>
