<svg width="38" height="35" viewBox="0 0 38 35" class="btn-faq-icon" xmlns="http://www.w3.org/2000/svg">
<path d="M29.0737 8.25102C29.0737 9.41507 28.2356 10.123 27.6236 10.6425C27.3918 10.8393 26.9604 11.1983 26.9616 11.3325C26.9658 11.8585 26.5474 12.2787 26.0271 12.2787C26.0245 12.2787 26.0218 12.2787 26.0192 12.2787C25.5025 12.2787 25.0815 11.8715 25.0773 11.348C25.069 10.3163 25.8136 9.69843 26.412 9.19045C26.8815 8.79181 27.1894 8.51131 27.1894 8.25462C27.1894 7.73499 26.7713 7.31222 26.2574 7.31222C25.7433 7.31222 25.3251 7.73499 25.3251 8.25462C25.3251 8.7808 24.9033 9.20728 24.3829 9.20728C23.8625 9.20728 23.4408 8.7808 23.4408 8.25462C23.4408 6.68442 24.7042 5.40689 26.2572 5.40689C27.8102 5.40679 29.0737 6.68071 29.0737 8.25102ZM26.0453 13.1581C25.5249 13.1581 25.124 13.5846 25.124 14.1107V14.118C25.124 14.6442 25.525 15.0671 26.0453 15.0671C26.5656 15.0671 26.9874 14.6369 26.9874 14.1107C26.9874 13.5846 26.5657 13.1581 26.0453 13.1581ZM7.05481 19.7942C6.53443 19.7942 6.11266 20.2207 6.11266 20.7469C6.11266 21.2731 6.53443 21.6996 7.05481 21.6996H7.13332C7.6537 21.6996 8.07547 21.2731 8.07547 20.7469C8.07547 20.2207 7.6537 19.7942 7.13332 19.7942H7.05481ZM10.3292 19.7942C9.80882 19.7942 9.38705 20.2207 9.38705 20.7469C9.38705 21.2731 9.80882 21.6996 10.3292 21.6996H10.4076C10.928 21.6996 11.3498 21.2731 11.3498 20.7469C11.3498 20.2207 10.928 19.7942 10.4076 19.7942H10.3292ZM38 4.57818V15.301C38 17.8399 35.9867 19.9001 33.4759 19.9001H21.2576C21.0187 19.9001 20.822 19.8987 20.6574 19.8952C20.485 19.8916 20.291 19.8902 20.2153 19.8987C20.1364 19.9516 19.9432 20.1306 19.757 20.3041C19.6832 20.3728 19.5996 20.4484 19.5095 20.5316L16.0526 23.7175C15.7769 23.9719 15.369 24.0377 15.0275 23.8855C14.686 23.7332 14.4463 23.3913 14.4463 23.0139V12.9139H4.57675C3.10469 12.9139 1.8843 14.1336 1.8843 15.6219V26.3447C1.8843 27.8331 3.1048 29.0033 4.57675 29.0033H18.2247C18.4597 29.0033 18.6796 29.1124 18.8531 29.2727L21.6694 31.8982V22.8438C21.6694 22.3176 22.0912 21.8911 22.6116 21.8911C23.132 21.8911 23.5537 22.3176 23.5537 22.8438V34.0575C23.5537 34.4349 23.3402 34.7717 22.9986 34.924C22.8764 34.9785 22.7537 35 22.6253 35C22.3946 35 22.167 34.9042 21.99 34.7408L17.8595 30.9085H4.57675C2.06582 30.9085 0 28.8836 0 26.3446V15.6219C0 13.083 2.06582 11.0086 4.57675 11.0086H14.4463V4.57818C14.4463 2.03923 16.5279 0 19.0388 0H33.476C35.9867 0 38 2.03923 38 4.57818ZM36.1157 4.57818C36.1157 3.0898 34.9478 1.90533 33.4759 1.90533H19.0388C17.5669 1.90533 16.3306 3.0898 16.3306 4.57818V11.9701V20.8546L18.2248 19.1237C18.3125 19.0427 18.4108 18.9686 18.4826 18.9017C19.3475 18.0957 19.5688 17.9669 20.6971 17.9904C20.851 17.9937 21.0343 17.9949 21.2576 17.9949H33.4759C34.9478 17.9949 36.1157 16.7894 36.1157 15.3011V4.57818Z" />
</svg>
