<svg width="35" height="35" viewBox="0 0 35 35" fill="none" xmlns="http://www.w3.org/2000/svg">
<path d="M17.5 0C7.77704 0 0 7.77349 0 17.5C0 27.223 7.77349 35 17.5 35C27.223 35 35 27.2265 35 17.5C35 7.77704 27.2265 0 17.5 0ZM17.5 32.9492C8.91051 32.9492 2.05078 26.093 2.05078 17.5C2.05078 8.91051 8.90702 2.05078 17.5 2.05078C26.0895 2.05078 32.9492 8.90702 32.9492 17.5C32.9492 26.0895 26.093 32.9492 17.5 32.9492Z" fill="white"/>
<path d="M25.2927 6.63452C19.9524 2.83394 12.7418 3.33816 8.00583 8.07424C3.35684 12.7232 2.85433 20.0088 6.56611 25.2244C6.93245 25.7391 7.67408 25.8039 8.12382 25.3577L25.4203 8.1979C25.8718 7.75001 25.8102 7.00284 25.2927 6.63452ZM7.58344 23.0051C5.13002 18.639 5.83849 13.1419 9.456 9.52434C13.167 5.81332 18.6121 5.10976 23.0671 7.64378L7.58344 23.0051Z" fill="white"/>
<path d="M28.434 9.77574C28.0673 9.26045 27.3252 9.19708 26.8763 9.64237L9.57975 26.8022C9.1283 27.25 9.18983 27.9973 9.70737 28.3655C15.078 32.1877 22.2849 31.6353 26.9942 26.9258C31.6432 22.2769 32.1457 14.9912 28.434 9.77574ZM25.5441 25.4758C21.8323 29.1875 16.3874 29.89 11.933 27.3563L27.4167 11.995C29.8701 16.3611 29.1616 21.8582 25.5441 25.4758Z" fill="white"/>
</svg>
