<svg width="10" height="10" viewBox="0 0 10 10" fill="none" xmlns="http://www.w3.org/2000/svg">
<path d="M9.84796 8.8807L7.38279 6.46725C8.01662 5.75799 8.36391 4.86559 8.36391 3.93656C8.36391 1.76597 6.48785 0 4.18195 0C1.87606 0 0 1.76597 0 3.93656C0 6.10714 1.87606 7.87312 4.18195 7.87312C5.04762 7.87312 5.87255 7.62734 6.57785 7.16077L9.06175 9.59254C9.16557 9.69403 9.30521 9.75 9.45485 9.75C9.59649 9.75 9.73086 9.69917 9.83287 9.60674C10.0496 9.41043 10.0565 9.08489 9.84796 8.8807ZM4.18195 1.02693C5.88637 1.02693 7.27296 2.33215 7.27296 3.93656C7.27296 5.54096 5.88637 6.84619 4.18195 6.84619C2.47754 6.84619 1.09094 5.54096 1.09094 3.93656C1.09094 2.33215 2.47754 1.02693 4.18195 1.02693Z" fill="#717278"/>
</svg>
